<svg id="Layer_1" data-name="Layer 1" xmlns="http://www.w3.org/2000/svg" viewBox="0 0 336.48 81">
  <defs>
    <style>
      .cls-1 {
        fill: #23408f;
      }

      .cls-2 {
        fill: #808184;
      }

      .cls-3 {
        fill: none;
        stroke: #23408f;
        stroke-miterlimit: 10;
      }

      .cls-4 {
        fill: #fff;
      }
    </style>
  </defs>
  <title>ppav1</title>
  <g>
    <path class="cls-1" d="M0,0V76.1S15.47,56.21,81.79,53.68V0Z"/>
    <path class="cls-2" d="M81.79,80.84H14.21s16.5-20.11,67.58-24.63Z"/>
    <g>
      <path class="cls-2" d="M100.61,11V6.7c0-.44,0-.79,0-1s0-.5,0-.73a2.69,2.69,0,0,0-.28-1.13,1.39,1.39,0,0,0-1-.51,1.9,1.9,0,0,0-.49-.07l-.63,0c-.33,0-.49-.08-.49-.26s.21-.26.63-.26l1.18,0,1.16,0,1,0h.78c.59,0,1.27,0,2,0s1.47-.05,2.14-.05a10.54,10.54,0,0,1,2.28.21,8.29,8.29,0,0,1,1.57.46,4.14,4.14,0,0,1,1,.53,5.82,5.82,0,0,1,.51.44,5.15,5.15,0,0,1,1,1.37,4.42,4.42,0,0,1,.47,2.05,7.36,7.36,0,0,1-.53,2.81,6.72,6.72,0,0,1-1.48,2.2,6.77,6.77,0,0,1-2.24,1.43,7.45,7.45,0,0,1-2.82.52H106a1.09,1.09,0,0,1-.28,0l-.23-.07a.18.18,0,0,1-.12-.19.25.25,0,0,1,.17-.24,1.89,1.89,0,0,1,.64-.07,3,3,0,0,0,1.28-.33,4.41,4.41,0,0,0,1.25-.95,5.14,5.14,0,0,0,1.32-3.47c0-.23,0-.51,0-.86a5.44,5.44,0,0,0-.2-1.11,4.8,4.8,0,0,0-.5-1.19A5,5,0,0,0,108.37,5a3.71,3.71,0,0,0-1.58-.92,5.9,5.9,0,0,0-1.29-.2c-.21,0-.42,0-.62,0a2.66,2.66,0,0,0-.5.09c-.16,0-.23.23-.23.54v11.5c0,1.32,0,2.53,0,3.61a22.54,22.54,0,0,0,.13,2.54,3.11,3.11,0,0,0,.26,1,1,1,0,0,0,.86.51,6.61,6.61,0,0,0,.73.09l.74,0c.3,0,.46.08.46.23s-.19.29-.55.29c-1,0-1.84,0-2.66-.05s-1.41,0-1.79,0h-.69l-.94,0-1,0-1,0c-.38,0-.57-.1-.57-.29s.15-.23.46-.23a4.91,4.91,0,0,0,.57,0,2.5,2.5,0,0,0,.46-.09.74.74,0,0,0,.59-.51,5,5,0,0,0,.25-1.07,25,25,0,0,0,.13-2.53c0-1.07,0-2.27,0-3.59Z"/>
      <path class="cls-2" d="M119.44,11V6.7c0-.44,0-.79,0-1s0-.5-.05-.73a2.69,2.69,0,0,0-.28-1.13,1.39,1.39,0,0,0-.95-.51,1.9,1.9,0,0,0-.49-.07l-.63,0c-.33,0-.49-.08-.49-.26s.21-.26.63-.26l1.18,0,1.13,0,1,0H122l1.13,0,1.12,0,.88,0a18.1,18.1,0,0,1,2.75.22,6.08,6.08,0,0,1,2.54,1,4,4,0,0,1,.63.58,5.05,5.05,0,0,1,.65.87,5.37,5.37,0,0,1,.49,1.14,4.89,4.89,0,0,1,.19,1.35,7,7,0,0,1-.19,1.58A6.28,6.28,0,0,1,131.6,11a9.56,9.56,0,0,1-1.16,1.6,17.37,17.37,0,0,1-1.83,1.71q1.92,2.45,3.44,4.32c1,1.26,1.94,2.34,2.8,3.24a7.93,7.93,0,0,0,1.12,1,6.69,6.69,0,0,0,.93.58,4.45,4.45,0,0,0,.71.27l.46.1a4.16,4.16,0,0,0,.8.09c.23,0,.35.08.35.23s-.18.29-.55.29h-2.73a11.17,11.17,0,0,1-1.87-.12,3.44,3.44,0,0,1-1.2-.43A6.54,6.54,0,0,1,131,22.34c-.6-.69-1.31-1.59-2.11-2.71l-.88-1.23-.83-1.18-.69-1c-.2-.28-.35-.48-.45-.59a.62.62,0,0,0-.52-.2l-2.5-.06a.21.21,0,0,0-.23.23V16c0,1.34,0,2.55,0,3.62a22.34,22.34,0,0,0,.13,2.53,3.12,3.12,0,0,0,.25,1.07,1,1,0,0,0,.87.51,6.32,6.32,0,0,0,.73.09l.68,0c.23,0,.34.08.34.23s-.19.29-.57.29l-1.31,0-1.27,0-1,0h-1.24l-.9,0-1,0-1,0c-.38,0-.57-.1-.57-.29s.15-.23.46-.23a4.91,4.91,0,0,0,.57,0,2.5,2.5,0,0,0,.46-.09.74.74,0,0,0,.59-.51,5,5,0,0,0,.25-1.07,25,25,0,0,0,.13-2.53c0-1.07,0-2.27,0-3.59Zm3.39,2.27a.51.51,0,0,0,.26.52,5.13,5.13,0,0,0,1,.21,9,9,0,0,0,1.14.08c.28,0,.53,0,.73,0a3.42,3.42,0,0,0,.53-.09,1.87,1.87,0,0,0,.4-.14,4.29,4.29,0,0,0,.38-.23,4.3,4.3,0,0,0,1.18-1.51,6.37,6.37,0,0,0,.51-2.8,6.52,6.52,0,0,0-.44-2.55,4.61,4.61,0,0,0-1.12-1.62A4,4,0,0,0,126,4.27a4.68,4.68,0,0,0-1.4-.24,6.26,6.26,0,0,0-1.52.11.38.38,0,0,0-.26.4Z"/>
      <path class="cls-2" d="M144.16,23.76a11,11,0,0,1-3.59-2.69,10.6,10.6,0,0,1-2.06-3.63,12.68,12.68,0,0,1-.64-3.9,12.5,12.5,0,0,1,.64-3.84,10.78,10.78,0,0,1,2.06-3.65,10.62,10.62,0,0,1,3.67-2.71,12.78,12.78,0,0,1,5.5-1.07,14.66,14.66,0,0,1,4.83.75,10.35,10.35,0,0,1,3.67,2.15,9.5,9.5,0,0,1,2.31,3.4,11.65,11.65,0,0,1,.8,4.45,12.55,12.55,0,0,1-.83,4.62,11,11,0,0,1-6.14,6.25,12.7,12.7,0,0,1-4.93.92A12.14,12.14,0,0,1,144.16,23.76Zm7.68-.5a6.25,6.25,0,0,0,1.44-.45,5.92,5.92,0,0,0,1.46-1,6.33,6.33,0,0,0,1.3-1.67,10.16,10.16,0,0,0,.93-2.53,15.31,15.31,0,0,0,.36-3.56,13.6,13.6,0,0,0-.65-4.34,10,10,0,0,0-1.79-3.3,7.91,7.91,0,0,0-2.69-2.08,7.67,7.67,0,0,0-3.29-.72,8.42,8.42,0,0,0-2.5.4,5.65,5.65,0,0,0-2.28,1.41,7.5,7.5,0,0,0-1.65,2.76,13,13,0,0,0-.65,4.43,14.31,14.31,0,0,0,.61,4.2,10.31,10.31,0,0,0,1.74,3.4,7.93,7.93,0,0,0,6.48,3.12A8.07,8.07,0,0,0,151.84,23.26Z"/>
      <path class="cls-2" d="M171.27,16.07c0,1.38,0,2.59,0,3.64a21.9,21.9,0,0,0,.13,2.48,3.12,3.12,0,0,0,.25,1.07,1,1,0,0,0,.87.51,6.41,6.41,0,0,0,.72.09l.71,0c.33,0,.49.08.49.23s-.21.29-.63.29c-.92,0-1.78,0-2.59-.05s-1.4,0-1.78,0h-.73l-1,0-1,0-.92,0c-.4,0-.6-.1-.6-.29s.14-.23.43-.23a4.91,4.91,0,0,0,.57,0,2.68,2.68,0,0,0,.46-.09.74.74,0,0,0,.59-.51,5,5,0,0,0,.25-1.07,22.3,22.3,0,0,0,.12-2.48c0-1.05,0-2.26,0-3.64V6.7c0-.44,0-.79,0-1s0-.5,0-.73a2.53,2.53,0,0,0-.29-1.13,1.37,1.37,0,0,0-.94-.51,1.9,1.9,0,0,0-.49-.07l-.64,0c-.32,0-.48-.07-.48-.23s.22-.29.66-.29l1.16,0h1.17l1,0h7.65l.72,0,.67,0a3.92,3.92,0,0,0,.51-.07l.24-.12a.43.43,0,0,1,.22-.06c.13,0,.2.09.2.26a1.56,1.56,0,0,1-.09.43,4.23,4.23,0,0,0-.14.87c0,.07,0,.22,0,.44s0,.46,0,.71,0,.48,0,.72a2.31,2.31,0,0,1-.05.45c0,.27-.13.41-.28.41s-.27-.16-.29-.46c0-.12,0-.28,0-.48a1.87,1.87,0,0,0-.15-.62,1.36,1.36,0,0,0-.61-.57A2.89,2.89,0,0,0,176,4.31l-4.43-.08c-.17,0-.26.13-.26.4v7.19c0,.17.07.25.2.25l3.68,0h.66c.21,0,.43,0,.64,0a3.36,3.36,0,0,0,.7-.13,1.17,1.17,0,0,0,.53-.39l.18-.22a.25.25,0,0,1,.2-.07c.11,0,.17.09.17.26a4.44,4.44,0,0,1-.09.63c0,.33-.1.71-.14,1.15,0,.16,0,.34,0,.55l0,.65q0,.33,0,.57c0,.16,0,.27,0,.33s0,.26,0,.37-.11.18-.26.18a.19.19,0,0,1-.19-.13.84.84,0,0,1,0-.27,2.85,2.85,0,0,0-.18-.9,1.58,1.58,0,0,0-.46-.63,1.8,1.8,0,0,0-1-.4c-.17,0-.47,0-.89,0l-1.33,0-1.29,0h-.75c-.13,0-.2.09-.2.26Z"/>
      <path class="cls-2" d="M185.53,11V6.7c0-.44,0-.79,0-1s0-.5-.05-.73a2.54,2.54,0,0,0-.28-1.13,1.39,1.39,0,0,0-.95-.51,1.9,1.9,0,0,0-.49-.07l-.63,0c-.33,0-.49-.08-.49-.26s.21-.26.63-.26l1.18,0h1.15l1,0h7.31l.66,0c.27,0,.51-.07.73-.08a2.15,2.15,0,0,0,.5-.09l.23-.07a.68.68,0,0,1,.23-.05c.12,0,.18.09.18.26a2.46,2.46,0,0,1-.09.51,8,8,0,0,0-.14,1.36c0,.08,0,.2,0,.38s0,.35,0,.56,0,.39,0,.57a1.65,1.65,0,0,1,0,.39,1,1,0,0,1-.08.21.22.22,0,0,1-.21.1c-.17,0-.25-.13-.25-.4,0-.09,0-.25,0-.46a1.71,1.71,0,0,0-.15-.57,1.32,1.32,0,0,0-.5-.63,3.39,3.39,0,0,0-1.42-.41,7.49,7.49,0,0,0-.77,0l-1.25,0-1.26,0h-.81c-.13,0-.2.09-.2.29v7.27c0,.21.07.31.2.31H193c.45,0,.75,0,.92,0a8.25,8.25,0,0,0,.85-.13,1,1,0,0,0,.53-.3c.21-.25.37-.38.46-.38s.21.08.21.23a4.55,4.55,0,0,1-.08.58c0,.28-.1.79-.15,1.52a5.11,5.11,0,0,1,0,.52c0,.19,0,.38-.05.57s0,.37,0,.52,0,.26,0,.32a2.38,2.38,0,0,1,0,.36.2.2,0,0,1-.23.18.23.23,0,0,1-.26-.26c0-.15,0-.31,0-.48a3.6,3.6,0,0,0-.07-.55,1.45,1.45,0,0,0-.46-.73,2.06,2.06,0,0,0-1.15-.39,7.4,7.4,0,0,0-.78,0l-1.22,0-1.25,0h-.83c-.12,0-.18.1-.18.29v6.73a6.14,6.14,0,0,0,.16,1.22,1.31,1.31,0,0,0,.49.73,2.47,2.47,0,0,0,1,.36,11.93,11.93,0,0,0,1.76.1c.39,0,.84,0,1.35,0a4,4,0,0,0,1.36-.3,1.93,1.93,0,0,0,.86-.75,4.24,4.24,0,0,0,.43-1.38c.06-.29.16-.43.32-.43a.18.18,0,0,1,.2.14,1.9,1.9,0,0,1,0,.37c0,.18,0,.41-.05.71s-.06.6-.1.92-.07.62-.11.92a4.86,4.86,0,0,1-.12.65,2.12,2.12,0,0,1-.17.43.55.55,0,0,1-.26.21,1.27,1.27,0,0,1-.45.09h-.67q-1.64,0-2.85,0l-2.12-.05c-.62,0-1.16-.07-1.63-.08h-2.05l-.95,0-1,0-1,0c-.38,0-.57-.1-.57-.29s.15-.23.46-.23a4.91,4.91,0,0,0,.57,0,2.5,2.5,0,0,0,.46-.09.74.74,0,0,0,.59-.51,5,5,0,0,0,.25-1.07,25,25,0,0,0,.13-2.53c0-1.07,0-2.27,0-3.59Z"/>
      <path class="cls-2" d="M204.05,24.64a8.29,8.29,0,0,1-1.93-.58.92.92,0,0,1-.45-.31,1.63,1.63,0,0,1-.1-.67c0-.4,0-.8,0-1.19s0-.76,0-1.11,0-.64.06-.9,0-.45,0-.56a2.27,2.27,0,0,1,.1-.53c0-.15.13-.22.24-.22s.22.05.25.16a1.66,1.66,0,0,1,0,.33,3.82,3.82,0,0,0,.07.69,6.35,6.35,0,0,0,.19.78,3.63,3.63,0,0,0,1.62,2.25,5,5,0,0,0,2.49.65,4.33,4.33,0,0,0,1.69-.3,3.67,3.67,0,0,0,1.2-.78,3.39,3.39,0,0,0,.72-1.05,2.93,2.93,0,0,0,.24-1.15,5.48,5.48,0,0,0-.1-1,3.7,3.7,0,0,0-.4-1.07,5.87,5.87,0,0,0-.87-1.17,10.83,10.83,0,0,0-1.45-1.31l-1.32-1a19.51,19.51,0,0,1-2-1.78,11,11,0,0,1-1.32-1.69,6,6,0,0,1-.72-1.65,6.88,6.88,0,0,1-.21-1.7,5,5,0,0,1,.47-2.18A5,5,0,0,1,204,3.79a6.79,6.79,0,0,1,2.1-1.12,8.93,8.93,0,0,1,2.72-.4,13.57,13.57,0,0,1,2.33.17c.61.12,1.11.22,1.49.32s.4.17.4.35,0,.53,0,1-.06,1.29-.06,2.42a2.43,2.43,0,0,1-.07.68.25.25,0,0,1-.25.19c-.19,0-.29-.18-.29-.52a3.42,3.42,0,0,0-.14-.76,3.23,3.23,0,0,0-.6-1.14l-.42-.44a2.56,2.56,0,0,0-.62-.46,3.31,3.31,0,0,0-.89-.36,4.35,4.35,0,0,0-1.21-.15,3.54,3.54,0,0,0-2.51.84A2.73,2.73,0,0,0,205,6.55a3,3,0,0,0,.15,1,2.93,2.93,0,0,0,.49.94,7.42,7.42,0,0,0,.93,1c.39.36.89.77,1.48,1.23l.8.61a20.27,20.27,0,0,1,2.2,1.87,10.19,10.19,0,0,1,1.47,1.75,6.21,6.21,0,0,1,.8,1.77,7.11,7.11,0,0,1,.25,1.94,6.42,6.42,0,0,1-.13,1.29,5.73,5.73,0,0,1-.45,1.32,5.33,5.33,0,0,1-.83,1.27,6.23,6.23,0,0,1-1.29,1.12,6.77,6.77,0,0,1-2.26.93,10.81,10.81,0,0,1-2.31.25A14,14,0,0,1,204.05,24.64Z"/>
      <path class="cls-2" d="M220.78,24.64a8.29,8.29,0,0,1-1.93-.58.92.92,0,0,1-.45-.31,1.63,1.63,0,0,1-.1-.67c0-.4,0-.8,0-1.19s0-.76,0-1.11,0-.64.06-.9,0-.45,0-.56a2.27,2.27,0,0,1,.1-.53c0-.15.13-.22.24-.22s.22.05.25.16a1.66,1.66,0,0,1,0,.33,3.82,3.82,0,0,0,.07.69,6.35,6.35,0,0,0,.19.78A3.66,3.66,0,0,0,221,22.78a5,5,0,0,0,2.49.65,4.33,4.33,0,0,0,1.69-.3,3.67,3.67,0,0,0,1.2-.78,3.39,3.39,0,0,0,.72-1.05,2.93,2.93,0,0,0,.24-1.15,5.48,5.48,0,0,0-.1-1,3.7,3.7,0,0,0-.4-1.07,6.2,6.2,0,0,0-.86-1.17,11.65,11.65,0,0,0-1.46-1.31l-1.32-1a20.63,20.63,0,0,1-2-1.78,11,11,0,0,1-1.32-1.69,6.27,6.27,0,0,1-.72-1.65,6.88,6.88,0,0,1-.21-1.7,5,5,0,0,1,.47-2.18,5,5,0,0,1,1.35-1.73,6.79,6.79,0,0,1,2.1-1.12,8.93,8.93,0,0,1,2.72-.4,13.57,13.57,0,0,1,2.33.17c.61.12,1.11.22,1.49.32s.4.17.4.35,0,.53-.05,1-.06,1.29-.06,2.42a2.43,2.43,0,0,1-.07.68.25.25,0,0,1-.25.19c-.19,0-.29-.18-.29-.52a3.42,3.42,0,0,0-.14-.76,3.23,3.23,0,0,0-.6-1.14l-.42-.44a2.56,2.56,0,0,0-.62-.46,3.31,3.31,0,0,0-.89-.36,4.35,4.35,0,0,0-1.21-.15,3.54,3.54,0,0,0-2.51.84,2.73,2.73,0,0,0-.91,2.12,3,3,0,0,0,.15,1,3.15,3.15,0,0,0,.49.94,8.12,8.12,0,0,0,.93,1c.39.36.89.77,1.48,1.23l.81.61a21.08,21.08,0,0,1,2.19,1.87,10.19,10.19,0,0,1,1.47,1.75,6.53,6.53,0,0,1,.81,1.77,7.53,7.53,0,0,1,.24,1.94,6.42,6.42,0,0,1-.13,1.29,5.83,5.83,0,0,1-1.28,2.59,6.23,6.23,0,0,1-1.29,1.12,6.77,6.77,0,0,1-2.26.93,10.81,10.81,0,0,1-2.31.25A14,14,0,0,1,220.78,24.64Z"/>
      <path class="cls-2" d="M237.16,11V6.7c0-.44,0-.79,0-1s0-.5-.05-.73c0-.94-.38-1.48-1-1.61a3.86,3.86,0,0,0-.51-.09l-.53,0c-.31,0-.46-.09-.46-.29s.23-.23.69-.23l.92,0,1,0,1,0h1.48l.92,0,1,0,.91,0c.4,0,.6.08.6.23s-.15.29-.46.29l-.42,0a3,3,0,0,0-.44.07,1,1,0,0,0-.79.5,2.78,2.78,0,0,0-.28,1.14c0,.23,0,.47,0,.73s0,.61,0,1v9.37c0,1.4,0,2.64,0,3.74s0,1.94.1,2.56a2.38,2.38,0,0,0,.27.94,1.1,1.1,0,0,0,.88.46,6.61,6.61,0,0,0,.73.09l.74,0c.3,0,.46.08.46.23s-.19.29-.55.29c-1,0-1.85,0-2.67-.05s-1.43,0-1.81,0h-.69l-.94,0-1,0-1,0c-.38,0-.57-.1-.57-.29s.15-.23.46-.23a4.91,4.91,0,0,0,.57,0,2.5,2.5,0,0,0,.46-.09.79.79,0,0,0,.61-.44,3.14,3.14,0,0,0,.23-1,25.45,25.45,0,0,0,.13-2.55c0-1.08,0-2.32,0-3.72Z"/>
      <path class="cls-2" d="M253.32,23.76a10.9,10.9,0,0,1-3.6-2.69,10.41,10.41,0,0,1-2.05-3.63,12.7,12.7,0,0,1-.65-3.9,12.53,12.53,0,0,1,.65-3.84,10.42,10.42,0,0,1,5.72-6.36,12.81,12.81,0,0,1,5.5-1.07,14.57,14.57,0,0,1,4.83.75,10.35,10.35,0,0,1,3.67,2.15,9.25,9.25,0,0,1,2.31,3.4,11.65,11.65,0,0,1,.81,4.45,12.56,12.56,0,0,1-.84,4.62,11,11,0,0,1-2.38,3.73,11.16,11.16,0,0,1-3.75,2.52,12.74,12.74,0,0,1-4.93.92A12.11,12.11,0,0,1,253.32,23.76Zm7.67-.5a6.25,6.25,0,0,0,1.44-.45,5.78,5.78,0,0,0,1.47-1,6.31,6.31,0,0,0,1.29-1.67,10.16,10.16,0,0,0,.93-2.53,15.31,15.31,0,0,0,.36-3.56,13.61,13.61,0,0,0-.64-4.34,9.88,9.88,0,0,0-1.8-3.3,7.81,7.81,0,0,0-2.69-2.08,7.64,7.64,0,0,0-3.29-.72,8.47,8.47,0,0,0-2.5.4,5.62,5.62,0,0,0-2.27,1.41,7.5,7.5,0,0,0-1.65,2.76,12.75,12.75,0,0,0-.65,4.43,14.31,14.31,0,0,0,.6,4.2,10.5,10.5,0,0,0,1.74,3.4,8.22,8.22,0,0,0,2.78,2.29,8,8,0,0,0,4.88.72Z"/>
      <path class="cls-2" d="M278.41,20.5c0,.55.06,1,.1,1.41a4.41,4.41,0,0,0,.21.94,1.39,1.39,0,0,0,.3.56,1,1,0,0,0,.4.28,2.88,2.88,0,0,0,.76.17l.74,0c.32,0,.48.08.48.23s-.22.29-.66.29c-.94,0-1.7,0-2.28-.05s-1,0-1.28,0l-1.09,0c-.6,0-1.27.05-2,.05a1.89,1.89,0,0,1-.46-.05.22.22,0,0,1-.17-.24c0-.15.15-.23.46-.23l.63,0a4.54,4.54,0,0,0,.66-.11,1.12,1.12,0,0,0,.71-.94,16.68,16.68,0,0,0,.19-2.63l.25-17a2.7,2.7,0,0,1,.08-.7.29.29,0,0,1,.3-.27.67.67,0,0,1,.46.24l.6.65.94,1c.54.58,1.23,1.3,2.07,2.17l2.78,2.89q1.55,1.59,3.12,3.14l1.11,1.14,1.29,1.34,1.33,1.36,1.17,1.25c.36.39.67.71.92,1l.51.5h.14L292.87,6a5.9,5.9,0,0,0-.24-1.84,1.41,1.41,0,0,0-.73-.75,2.15,2.15,0,0,0-.77-.15l-.76,0c-.3,0-.46-.08-.46-.26s.07-.18.22-.21a2.58,2.58,0,0,1,.53-.05c.75,0,1.44,0,2.07.05s1.1,0,1.41,0l1,0c.51,0,1.12-.05,1.83-.05a2,2,0,0,1,.47.05c.13,0,.19.1.19.21s-.17.26-.52.26l-.42,0a3,3,0,0,0-.44.07,1.17,1.17,0,0,0-.82.7,5.25,5.25,0,0,0-.25,1.74l-.31,18.14c0,.59-.13.89-.38.89a.87.87,0,0,1-.49-.2,4.91,4.91,0,0,1-.48-.43c-.46-.42-1-1-1.67-1.62s-1.36-1.38-2.13-2.15L287.35,18,285,15.67c-.79-.77-1.56-1.55-2.32-2.36s-1.45-1.55-2.08-2.23-1.17-1.26-1.6-1.74-.71-.78-.85-.92h-.08Z"/>
      <path class="cls-2" d="M305.18,16.9c-.12,0-.2.08-.26.23l-1.55,4.11a4.88,4.88,0,0,0-.33,1,3.52,3.52,0,0,0-.1.73.9.9,0,0,0,.24.65,1.29,1.29,0,0,0,.91.24h.43a.88.88,0,0,1,.34,0,.19.19,0,0,1,.09.19c0,.19-.16.29-.49.29s-1,0-1.54-.05-1.07,0-1.51,0H301l-.81,0-1,0-1.11,0c-.36,0-.55-.1-.55-.29s.12-.23.35-.23h.46l.43-.05a2.16,2.16,0,0,0,1.51-.82,7.62,7.62,0,0,0,.93-1.77l7.22-18a5.94,5.94,0,0,1,.42-.89.45.45,0,0,1,.38-.26c.21,0,.45.31.72.92.12.27.33.79.65,1.55s.68,1.69,1.11,2.76.88,2.24,1.38,3.48,1,2.48,1.48,3.71.95,2.38,1.39,3.46.81,2,1.12,2.72a12.27,12.27,0,0,0,.76,1.57,5.63,5.63,0,0,0,.68.92,2.21,2.21,0,0,0,.59.46,2.55,2.55,0,0,0,.5.18q.31.06.63.09l.58,0c.25,0,.37.08.37.23s-.08.19-.26.23a5.77,5.77,0,0,1-1.06.06h-2.24c-1,0-2,0-3.19-.06l-.64-.06c-.15,0-.22-.07-.22-.17s.13-.24.4-.26a.61.61,0,0,0,.26-.23.46.46,0,0,0,0-.43l-2.3-6.1a.31.31,0,0,0-.29-.2ZM311,15.47c.14,0,.18-.06.15-.18l-2.59-7.1L308.54,8c0-.06-.05-.09-.08-.09s-.08,0-.11.09-.05.12-.07.17l-2.64,7.08c0,.13,0,.2.11.2Z"/>
      <path class="cls-2" d="M327.74,16.07c0,1.86,0,3.29.08,4.28a2.78,2.78,0,0,0,.53,1.9,1.35,1.35,0,0,0,.43.29,2.82,2.82,0,0,0,.65.19c.25,0,.58.08,1,.11s.87,0,1.43,0a14.35,14.35,0,0,0,2-.11,2.28,2.28,0,0,0,1.38-.69,2.74,2.74,0,0,0,.47-.81,3.63,3.63,0,0,0,.28-.92A1.37,1.37,0,0,1,336,20a.24.24,0,0,1,.23-.12c.16,0,.23.17.23.49,0,.08,0,.25,0,.53a9.18,9.18,0,0,1-.1.94c0,.34-.09.68-.14,1a7,7,0,0,1-.16.82,1.51,1.51,0,0,1-.14.38.6.6,0,0,1-.27.25,1.62,1.62,0,0,1-.52.11c-.22,0-.52,0-.88,0-1,0-1.94,0-2.72,0l-2.14-.05c-.65,0-1.25-.07-1.79-.08h-2.4l-.95,0-1,0-1,0c-.38,0-.57-.1-.57-.29s.15-.23.46-.23a4.91,4.91,0,0,0,.57,0,2.5,2.5,0,0,0,.46-.09.74.74,0,0,0,.59-.51,5,5,0,0,0,.25-1.07,25,25,0,0,0,.13-2.53c0-1.07,0-2.27,0-3.59V6.7c0-.44,0-.79,0-1s0-.5-.05-.73a2.69,2.69,0,0,0-.28-1.13,1.39,1.39,0,0,0-.95-.51,4,4,0,0,0-.95-.09c-.33,0-.49-.08-.49-.26s.21-.26.63-.26l1.08,0,1.11,0,1,0h1.5l1.05,0,1.12,0,1,0c.4,0,.6.09.6.26s-.17.26-.51.26l-.55,0a3.17,3.17,0,0,0-.57.07,1.08,1.08,0,0,0-.8.5,3,3,0,0,0-.27,1.14c0,.23,0,.47,0,.73s0,.61,0,1v9.37Z"/>
      <path class="cls-2" d="M100.15,37.7V33.39c0-.44,0-.79,0-1s0-.5,0-.73a2.64,2.64,0,0,0-.28-1.12,1.4,1.4,0,0,0-1-.52,1.9,1.9,0,0,0-.49-.07h-.64c-.32,0-.48-.09-.48-.26s.21-.26.63-.26h1.18l1.16,0,1,0H102c.59,0,1.27,0,2,0s1.47,0,2.14,0a11.28,11.28,0,0,1,2.28.2A9.38,9.38,0,0,1,110,30a4.14,4.14,0,0,1,1,.53,4.4,4.4,0,0,1,.51.45,5.08,5.08,0,0,1,1,1.36,4.46,4.46,0,0,1,.47,2.06,7.31,7.31,0,0,1-.53,2.8,6.61,6.61,0,0,1-1.48,2.2,7,7,0,0,1-2.24,1.44,7.64,7.64,0,0,1-2.82.51h-.32l-.28,0-.23-.08a.17.17,0,0,1-.12-.18.26.26,0,0,1,.17-.25,1.89,1.89,0,0,1,.64-.07,3,3,0,0,0,1.28-.33,4.55,4.55,0,0,0,1.25-1,5.19,5.19,0,0,0,.94-1.49,5,5,0,0,0,.38-2c0-.23,0-.52,0-.86a5.21,5.21,0,0,0-.2-1.11,4.8,4.8,0,0,0-.5-1.19,4.58,4.58,0,0,0-1-1.15,3.61,3.61,0,0,0-1.58-.92A5.45,5.45,0,0,0,105,30.6c-.21,0-.42,0-.62,0a2.66,2.66,0,0,0-.5.09c-.16.06-.23.24-.23.55V42.76c0,1.33,0,2.53,0,3.61a22.89,22.89,0,0,0,.13,2.55,3,3,0,0,0,.26,1,1,1,0,0,0,.86.52,6.61,6.61,0,0,0,.73.09l.74,0c.3,0,.46.08.46.23s-.19.29-.55.29c-1,0-1.84,0-2.66,0s-1.41,0-1.8,0h-.68l-.94,0-1,0h-1c-.38,0-.57-.09-.57-.29s.15-.23.46-.23l.57,0a2.68,2.68,0,0,0,.46-.09.75.75,0,0,0,.59-.52,5,5,0,0,0,.25-1.06c.07-.62.12-1.46.13-2.53s0-2.27,0-3.6Z"/>
      <path class="cls-2" d="M119,37.7V33.39c0-.44,0-.79,0-1s0-.5,0-.73a2.48,2.48,0,0,0-.29-1.12,1.35,1.35,0,0,0-.94-.52,1.9,1.9,0,0,0-.49-.07h-.64c-.32,0-.48-.09-.48-.26s.21-.26.63-.26h1.18l1.13,0,1,0h1.58l1.13,0,1.12,0h.88a18.09,18.09,0,0,1,2.75.21,6.36,6.36,0,0,1,2.54,1,4.51,4.51,0,0,1,.63.58,5.15,5.15,0,0,1,.65.88,5.07,5.07,0,0,1,.49,1.13,4.89,4.89,0,0,1,.19,1.35,6.9,6.9,0,0,1-.19,1.58,6.34,6.34,0,0,1-.62,1.56A9.51,9.51,0,0,1,130,39.27,15.5,15.5,0,0,1,128.15,41q1.92,2.45,3.44,4.33c1,1.25,1.94,2.33,2.8,3.23a8.14,8.14,0,0,0,1.12,1,6,6,0,0,0,.93.57,3.79,3.79,0,0,0,.71.28l.46.1a4.08,4.08,0,0,0,.8.08c.23,0,.35.08.35.23s-.18.29-.55.29h-2.73a12.61,12.61,0,0,1-1.87-.11,3.79,3.79,0,0,1-1.21-.43A6.7,6.7,0,0,1,130.58,49c-.6-.69-1.31-1.59-2.11-2.7l-.88-1.24-.83-1.18-.69-1c-.2-.28-.35-.47-.45-.59a.66.66,0,0,0-.52-.2l-2.5-.06a.21.21,0,0,0-.23.23v.41c0,1.34,0,2.54,0,3.62a22.62,22.62,0,0,0,.13,2.53,3.12,3.12,0,0,0,.25,1.06,1,1,0,0,0,.87.52,6.32,6.32,0,0,0,.73.09l.68,0c.23,0,.34.08.34.23s-.19.29-.57.29h-1.31l-1.27,0-1,0H120l-.9,0-1,0h-1c-.38,0-.57-.09-.57-.29s.15-.23.46-.23l.57,0a2.68,2.68,0,0,0,.46-.09.75.75,0,0,0,.59-.52,5,5,0,0,0,.25-1.06c.07-.62.12-1.46.13-2.53s0-2.27,0-3.6ZM122.37,40a.5.5,0,0,0,.26.51,5.87,5.87,0,0,0,1.05.22,8.94,8.94,0,0,0,1.14.07c.28,0,.53,0,.73,0s.38,0,.53-.08a1.86,1.86,0,0,0,.4-.15,2.75,2.75,0,0,0,.38-.23A4.21,4.21,0,0,0,128,38.78a6.34,6.34,0,0,0,.51-2.8,6.46,6.46,0,0,0-.44-2.54A4.66,4.66,0,0,0,127,31.81a4.12,4.12,0,0,0-1.44-.85,4.68,4.68,0,0,0-1.4-.24,6.84,6.84,0,0,0-1.52.11.39.39,0,0,0-.26.41Z"/>
      <path class="cls-2" d="M140.68,37.7V33.39c0-.44,0-.79,0-1s0-.5,0-.73a2.62,2.62,0,0,0-.29-1.12,1.37,1.37,0,0,0-1-.52,1.83,1.83,0,0,0-.49-.07h-.63c-.33,0-.49-.09-.49-.26s.21-.26.63-.26h1.18l1.15,0,1,0h8l.73-.09a2.37,2.37,0,0,0,.51-.09l.23-.07a.59.59,0,0,1,.23,0c.11,0,.17.08.17.26a2.51,2.51,0,0,1-.09.5,9.24,9.24,0,0,0-.14,1.37c0,.07,0,.2,0,.37s0,.36,0,.56,0,.39,0,.57a2,2,0,0,1-.05.39.58.58,0,0,1-.08.22.21.21,0,0,1-.2.1c-.18,0-.26-.14-.26-.4,0-.1,0-.25,0-.46a2.05,2.05,0,0,0-.14-.58,1.41,1.41,0,0,0-.51-.63,3.42,3.42,0,0,0-1.42-.4,6.5,6.5,0,0,0-.76-.05l-1.25,0-1.27,0-.8,0c-.14,0-.2.1-.2.29v7.27c0,.21.06.32.2.32h2.27l1.41,0c.44,0,.74,0,.92,0,.34,0,.62-.08.85-.13a1,1,0,0,0,.53-.3c.21-.25.36-.37.46-.37s.2.07.2.23,0,.28-.07.57-.1.8-.16,1.52a5,5,0,0,1,0,.52c0,.19,0,.39,0,.58s0,.36,0,.51,0,.26,0,.32a2.19,2.19,0,0,1,0,.36c0,.13-.09.19-.23.19s-.25-.09-.25-.26,0-.32,0-.49a3.76,3.76,0,0,0-.07-.55,1.5,1.5,0,0,0-.46-.73,2.11,2.11,0,0,0-1.15-.39c-.13,0-.39,0-.78,0l-1.22,0h-2.08c-.12,0-.17.09-.17.28v6.73a5.39,5.39,0,0,0,.15,1.22,1.28,1.28,0,0,0,.49.73,2.23,2.23,0,0,0,1,.36,11.87,11.87,0,0,0,1.77.11c.38,0,.83,0,1.35,0a3.94,3.94,0,0,0,1.35-.3,1.81,1.81,0,0,0,.86-.75,3.87,3.87,0,0,0,.43-1.38c.06-.28.16-.43.32-.43a.18.18,0,0,1,.2.15,1.83,1.83,0,0,1,0,.37c0,.17,0,.41-.05.7s-.06.61-.1.92-.07.63-.11.92a4.56,4.56,0,0,1-.12.65,1.52,1.52,0,0,1-.17.43.52.52,0,0,1-.26.22,1.58,1.58,0,0,1-.44.08l-.68,0c-1.09,0-2,0-2.84,0l-2.13-.06c-.62,0-1.16-.06-1.63-.07h-2.05c-.29,0-.6,0-.95,0l-1,0-1,0c-.39,0-.58-.09-.58-.29s.15-.23.46-.23l.58,0a2.88,2.88,0,0,0,.46-.09.78.78,0,0,0,.59-.52,5.79,5.79,0,0,0,.24-1.06,22.62,22.62,0,0,0,.13-2.53c0-1.08,0-2.27,0-3.6Z"/>
      <path class="cls-2" d="M158.85,37.7V33.39c0-.44,0-.79,0-1s0-.5,0-.73a2.62,2.62,0,0,0-.29-1.12,1.4,1.4,0,0,0-.95-.52,1.9,1.9,0,0,0-.49-.07h-.63c-.33,0-.49-.09-.49-.26s.21-.26.63-.26h1.18l1.16,0,1,0h.78c.6,0,1.27,0,2,0s1.47,0,2.14,0a11.28,11.28,0,0,1,2.28.2,9.11,9.11,0,0,1,1.57.46,4.14,4.14,0,0,1,1,.53,5.82,5.82,0,0,1,.52.45,5.31,5.31,0,0,1,1,1.36,4.34,4.34,0,0,1,.47,2.06,7.13,7.13,0,0,1-.53,2.8,6.47,6.47,0,0,1-1.48,2.2,7,7,0,0,1-2.24,1.44,7.6,7.6,0,0,1-2.82.51h-.31l-.29,0-.23-.08a.17.17,0,0,1-.12-.18.25.25,0,0,1,.18-.25,1.78,1.78,0,0,1,.63-.07,2.93,2.93,0,0,0,1.28-.33,4.41,4.41,0,0,0,1.25-1,5.21,5.21,0,0,0,.95-1.49,5,5,0,0,0,.37-2c0-.23,0-.52,0-.86a6.87,6.87,0,0,0-.2-1.11,5.27,5.27,0,0,0-.51-1.19,4.37,4.37,0,0,0-.95-1.15,3.56,3.56,0,0,0-1.58-.92,5.3,5.3,0,0,0-1.29-.21c-.21,0-.42,0-.62,0a2.66,2.66,0,0,0-.5.09c-.16.06-.23.24-.23.55V42.76c0,1.33,0,2.53,0,3.61s.06,1.93.13,2.55a3.3,3.3,0,0,0,.26,1,1,1,0,0,0,.86.52,6.52,6.52,0,0,0,.74.09l.73,0c.31,0,.46.08.46.23s-.18.29-.55.29c-1,0-1.84,0-2.66,0s-1.41,0-1.79,0h-.69l-.94,0-1,0h-1c-.39,0-.58-.09-.58-.29s.15-.23.46-.23l.58,0a2.55,2.55,0,0,0,.45-.09.75.75,0,0,0,.59-.52,5,5,0,0,0,.25-1.06,22.62,22.62,0,0,0,.13-2.53c0-1.08,0-2.27,0-3.6Z"/>
      <path class="cls-2" d="M177.4,43.6c-.12,0-.21.07-.26.23l-1.56,4.11a6,6,0,0,0-.33,1,4.52,4.52,0,0,0-.1.73.85.85,0,0,0,.25.65,1.28,1.28,0,0,0,.9.24h.43a.85.85,0,0,1,.35.05.18.18,0,0,1,.09.18c0,.2-.17.29-.49.29s-1,0-1.54,0-1.07,0-1.51,0h-.45l-.8,0-1,0h-1.1c-.37,0-.55-.09-.55-.29s.12-.23.35-.23h.46l.43,0a2.2,2.2,0,0,0,1.51-.82,8,8,0,0,0,.93-1.77l7.22-18A7.86,7.86,0,0,1,181,29a.46.46,0,0,1,.39-.25c.21,0,.45.3.72.92.12.26.33.78.65,1.55s.68,1.68,1.1,2.76.89,2.23,1.38,3.48,1,2.48,1.48,3.7,1,2.39,1.4,3.47.81,2,1.12,2.72A11.44,11.44,0,0,0,190,48.9a5.22,5.22,0,0,0,.68.92,1.9,1.9,0,0,0,.59.46,2.64,2.64,0,0,0,.5.19l.63.09.58,0c.25,0,.37.08.37.23s-.09.2-.26.23a5.85,5.85,0,0,1-1.06.06h-2.24c-1,0-2,0-3.2-.06L186,51c-.15,0-.23-.08-.23-.18s.14-.24.41-.25a.57.57,0,0,0,.25-.24.41.41,0,0,0,0-.43l-2.3-6.09a.29.29,0,0,0-.28-.2Zm5.86-1.44c.13,0,.18-.06.14-.17l-2.58-7.1-.06-.17q0-.09-.09-.09s-.07,0-.1.09a.87.87,0,0,0-.07.17L177.86,42c0,.13,0,.2.11.2Z"/>
      <path class="cls-2" d="M196.37,37.7V33.39c0-.44,0-.79,0-1s0-.5,0-.73a2.48,2.48,0,0,0-.29-1.12,1.37,1.37,0,0,0-.94-.52,1.9,1.9,0,0,0-.49-.07H194c-.32,0-.48-.09-.48-.26s.21-.26.63-.26h1.18l1.13,0,1,0H199l1.13,0,1.12,0h.88a18,18,0,0,1,2.74.21,6.4,6.4,0,0,1,2.55,1,4.51,4.51,0,0,1,.63.58,5.15,5.15,0,0,1,.65.88,5.07,5.07,0,0,1,.49,1.13,4.89,4.89,0,0,1,.18,1.35,6.9,6.9,0,0,1-.18,1.58,6.34,6.34,0,0,1-.62,1.56,9.06,9.06,0,0,1-1.17,1.59A14.61,14.61,0,0,1,205.54,41c1.28,1.63,2.43,3.07,3.43,4.33s1.94,2.33,2.81,3.23a8.14,8.14,0,0,0,1.12,1,6,6,0,0,0,.93.57,3.79,3.79,0,0,0,.71.28l.46.1a4.08,4.08,0,0,0,.8.08c.23,0,.35.08.35.23s-.19.29-.55.29h-2.73A12.51,12.51,0,0,1,211,51a3.79,3.79,0,0,1-1.21-.43A6.7,6.7,0,0,1,208,49c-.61-.69-1.31-1.59-2.11-2.7L205,45.09l-.84-1.18-.68-1c-.21-.28-.35-.47-.45-.59a.67.67,0,0,0-.52-.2L200,42.1a.21.21,0,0,0-.23.23v.41c0,1.34,0,2.54,0,3.62s.06,1.91.13,2.53a3.36,3.36,0,0,0,.26,1.06,1,1,0,0,0,.87.52,6.32,6.32,0,0,0,.73.09l.67,0c.23,0,.35.08.35.23s-.19.29-.58.29h-1.3l-1.27,0-1,0h-1.24l-.91,0-1,0h-1c-.38,0-.57-.09-.57-.29s.15-.23.46-.23l.57,0a2.68,2.68,0,0,0,.46-.09A.76.76,0,0,0,196,50a4.5,4.5,0,0,0,.24-1.06,22.62,22.62,0,0,0,.13-2.53c0-1.08,0-2.27,0-3.6ZM199.76,40a.5.5,0,0,0,.26.51,5.87,5.87,0,0,0,1,.22,8.9,8.9,0,0,0,1.13.07c.29,0,.54,0,.74,0s.38,0,.53-.08a1.86,1.86,0,0,0,.4-.15,2.75,2.75,0,0,0,.38-.23,4.09,4.09,0,0,0,1.17-1.51,6.19,6.19,0,0,0,.52-2.8,6.46,6.46,0,0,0-.44-2.54,4.66,4.66,0,0,0-1.12-1.63,4.3,4.3,0,0,0-1.44-.85,4.73,4.73,0,0,0-1.4-.24,6.84,6.84,0,0,0-1.52.11.39.39,0,0,0-.26.41Z"/>
      <path class="cls-2" d="M218.07,37.7V33.39c0-.44,0-.79,0-1s0-.5,0-.73a2.62,2.62,0,0,0-.29-1.12,1.37,1.37,0,0,0-.95-.52,1.83,1.83,0,0,0-.49-.07h-.63c-.33,0-.49-.09-.49-.26s.21-.26.63-.26H217l1.15,0,1,0h8l.73-.09a2.37,2.37,0,0,0,.51-.09l.23-.07a.59.59,0,0,1,.23,0c.11,0,.17.08.17.26a2.51,2.51,0,0,1-.09.5,9.24,9.24,0,0,0-.14,1.37c0,.07,0,.2,0,.37s0,.36,0,.56,0,.39,0,.57a2,2,0,0,1,0,.39.83.83,0,0,1-.08.22.21.21,0,0,1-.2.1c-.18,0-.26-.14-.26-.4,0-.1,0-.25,0-.46a2.05,2.05,0,0,0-.14-.58,1.41,1.41,0,0,0-.51-.63A3.42,3.42,0,0,0,226,31a6.5,6.5,0,0,0-.76-.05l-1.25,0-1.27,0-.8,0c-.14,0-.2.1-.2.29v7.27c0,.21.06.32.2.32h2.27l1.41,0c.44,0,.74,0,.92,0a8.44,8.44,0,0,0,.84-.13,1,1,0,0,0,.54-.3c.21-.25.36-.37.46-.37s.2.07.2.23,0,.28-.07.57-.1.8-.16,1.52a5,5,0,0,1,0,.52c0,.19,0,.39,0,.58s0,.36,0,.51,0,.26,0,.32a2.19,2.19,0,0,1,0,.36.2.2,0,0,1-.23.19c-.17,0-.25-.09-.25-.26s0-.32-.05-.49a3.76,3.76,0,0,0-.07-.55,1.5,1.5,0,0,0-.46-.73,2.11,2.11,0,0,0-1.15-.39c-.13,0-.39,0-.78,0l-1.22,0h-2.08c-.12,0-.17.09-.17.28v6.73a5.39,5.39,0,0,0,.15,1.22,1.28,1.28,0,0,0,.49.73,2.23,2.23,0,0,0,1,.36,11.87,11.87,0,0,0,1.77.11c.38,0,.83,0,1.35,0a3.94,3.94,0,0,0,1.35-.3,1.81,1.81,0,0,0,.86-.75,4.08,4.08,0,0,0,.43-1.38c.06-.28.16-.43.32-.43a.18.18,0,0,1,.2.15,1.83,1.83,0,0,1,0,.37c0,.17,0,.41-.05.7s-.06.61-.1.92-.07.63-.11.92a4.56,4.56,0,0,1-.12.65,1.52,1.52,0,0,1-.17.43.52.52,0,0,1-.26.22,1.58,1.58,0,0,1-.44.08l-.68,0c-1.09,0-2,0-2.84,0l-2.13-.06c-.62,0-1.16-.06-1.63-.07h-2c-.29,0-.61,0-1,0l-1,0-1,0c-.39,0-.58-.09-.58-.29s.15-.23.46-.23l.58,0a2.88,2.88,0,0,0,.46-.09.78.78,0,0,0,.59-.52,5.79,5.79,0,0,0,.24-1.06,22.62,22.62,0,0,0,.13-2.53c0-1.08,0-2.27,0-3.6Z"/>
      <path class="cls-2" d="M236.24,37.7V33.39c0-.44,0-.79,0-1s0-.5,0-.73a2.5,2.5,0,0,0-.28-1.12,1.4,1.4,0,0,0-1-.52,1.9,1.9,0,0,0-.49-.07h-.63c-.33,0-.49-.09-.49-.26s.21-.26.63-.26h1.18l1.16,0,1,0h.78c.44,0,1.07,0,1.9,0s1.66,0,2.53,0,1.86,0,2.87.06a18.75,18.75,0,0,1,3.06.35,13.66,13.66,0,0,1,3,1,8.32,8.32,0,0,1,2.61,1.9,9.81,9.81,0,0,1,1.05,1.29,9,9,0,0,1,.9,1.62,11.24,11.24,0,0,1,.84,4.39,11.45,11.45,0,0,1-.26,2.54,11.21,11.21,0,0,1-.7,2.21,10.34,10.34,0,0,1-1,1.84A9.6,9.6,0,0,1,253.72,48a9.4,9.4,0,0,1-1.31,1.1,10.13,10.13,0,0,1-2,1.1,17.73,17.73,0,0,1-2.76.85,16.65,16.65,0,0,1-3.55.34c-.52,0-1.06,0-1.63-.06l-1.68-.11-1.55-.12c-.48,0-.9,0-1.26,0h-.69c-.29,0-.61,0-.95,0l-1,0-1,0c-.38,0-.57-.09-.57-.29s.15-.23.46-.23l.57,0a2.5,2.5,0,0,0,.46-.09.75.75,0,0,0,.59-.52,5,5,0,0,0,.25-1.06c.07-.62.12-1.46.13-2.53s0-2.27,0-3.6Zm3.6,3.17c0,1.53,0,2.81,0,3.85s0,1.69,0,2,0,.37,0,.59l.06.65c0,.21.05.4.08.58a1,1,0,0,0,.15.37,2.75,2.75,0,0,0,1.16.78A7.17,7.17,0,0,0,244,50a12.85,12.85,0,0,0,3.77-.48,7.69,7.69,0,0,0,2.85-1.59,6.17,6.17,0,0,0,1.89-3.06,15,15,0,0,0,.52-4.1,11.29,11.29,0,0,0-.26-2.5,10.3,10.3,0,0,0-.66-2,8.61,8.61,0,0,0-.89-1.57,8,8,0,0,0-.95-1.11,9.54,9.54,0,0,0-2.08-1.51,11.43,11.43,0,0,0-2.16-.86,12.66,12.66,0,0,0-2.08-.4,17.82,17.82,0,0,0-1.84-.1h-.51l-.56.05a5,5,0,0,0-.5.07l-.3.07a.57.57,0,0,0-.35.58c0,.24,0,.58,0,1s0,.87,0,1.39v7Z"/>
      <path class="cls-2" d="M264.76,47.19c0,.56.05,1,.1,1.41a4.74,4.74,0,0,0,.2.95,1.69,1.69,0,0,0,.3.56,1.18,1.18,0,0,0,.4.27,2.61,2.61,0,0,0,.77.18l.73,0c.33,0,.49.08.49.23s-.22.29-.66.29c-.94,0-1.7,0-2.29,0s-1,0-1.28,0l-1.09,0c-.59,0-1.26,0-2,0a1.91,1.91,0,0,1-.46,0c-.12,0-.17-.11-.17-.25s.15-.23.46-.23l.63,0a3.5,3.5,0,0,0,.66-.12,1.11,1.11,0,0,0,.7-.93,15.62,15.62,0,0,0,.19-2.63l.26-17a2.78,2.78,0,0,1,.07-.71q.08-.27.3-.27a.64.64,0,0,1,.46.24l.61.65q.11.15.93,1c.55.59,1.24,1.31,2.07,2.17l2.79,2.89Q271.45,37.44,273,39l1.11,1.13,1.29,1.34,1.32,1.37c.43.45.83.86,1.18,1.25s.66.7.92,1l.5.5h.15l-.29-12.9a5.45,5.45,0,0,0-.25-1.84,1.31,1.31,0,0,0-.73-.75,1.9,1.9,0,0,0-.76-.16h-.76c-.31,0-.46-.09-.46-.26s.07-.19.21-.22a2.77,2.77,0,0,1,.54,0c.74,0,1.43,0,2.07,0s1.1,0,1.4,0l1,0c.5,0,1.11,0,1.82,0a2.21,2.21,0,0,1,.48,0,.21.21,0,0,1,.18.22c0,.17-.17.26-.52.26H283a3.13,3.13,0,0,0-.45.07,1.2,1.2,0,0,0-.82.71,5.5,5.5,0,0,0-.24,1.74l-.32,18.14c0,.59-.12.89-.37.89a.84.84,0,0,1-.49-.2c-.17-.14-.33-.28-.49-.44-.46-.42-1-1-1.67-1.62l-2.12-2.14-2.36-2.36-2.33-2.33c-.78-.76-1.56-1.55-2.31-2.36L267,37.78,265.38,36c-.43-.48-.72-.79-.85-.92h-.09Z"/>
      <path class="cls-2" d="M290.37,37.7V33.39c0-.44,0-.79,0-1s0-.5,0-.73a2.62,2.62,0,0,0-.29-1.12,1.4,1.4,0,0,0-.95-.52,1.9,1.9,0,0,0-.49-.07H288c-.33,0-.49-.09-.49-.26s.21-.26.63-.26h1.18l1.15,0,1,0h8l.73-.09a2.15,2.15,0,0,0,.5-.09l.24-.07a.57.57,0,0,1,.22,0c.12,0,.18.08.18.26a2.51,2.51,0,0,1-.09.5,9.24,9.24,0,0,0-.14,1.37c0,.07,0,.2,0,.37s0,.36,0,.56,0,.39,0,.57a2,2,0,0,1-.05.39.83.83,0,0,1-.08.22.21.21,0,0,1-.2.1c-.18,0-.26-.14-.26-.4,0-.1,0-.25,0-.46a1.77,1.77,0,0,0-.15-.58,1.32,1.32,0,0,0-.5-.63,3.42,3.42,0,0,0-1.42-.4,6.5,6.5,0,0,0-.76-.05l-1.25,0-1.27,0-.8,0c-.14,0-.21.1-.21.29v7.27c0,.21.07.32.21.32h2.27l1.41,0c.44,0,.74,0,.92,0a8.44,8.44,0,0,0,.84-.13,1,1,0,0,0,.54-.3c.21-.25.36-.37.46-.37s.2.07.2.23,0,.28-.07.57-.11.8-.16,1.52a5,5,0,0,1,0,.52c0,.19,0,.39,0,.58s0,.36,0,.51,0,.26,0,.32a2.19,2.19,0,0,1,0,.36.2.2,0,0,1-.23.19.23.23,0,0,1-.26-.26c0-.15,0-.32,0-.49a3.76,3.76,0,0,0-.07-.55,1.5,1.5,0,0,0-.46-.73,2.11,2.11,0,0,0-1.15-.39c-.13,0-.39,0-.78,0l-1.22,0h-2.08c-.12,0-.18.09-.18.28v6.73a5.94,5.94,0,0,0,.16,1.22,1.28,1.28,0,0,0,.49.73,2.23,2.23,0,0,0,1,.36,11.87,11.87,0,0,0,1.77.11c.38,0,.83,0,1.35,0a3.94,3.94,0,0,0,1.35-.3,1.81,1.81,0,0,0,.86-.75,4.08,4.08,0,0,0,.43-1.38c.06-.28.16-.43.32-.43a.18.18,0,0,1,.2.15,1.83,1.83,0,0,1,0,.37c0,.17,0,.41-.05.7s-.06.61-.1.92-.07.63-.11.92a4.56,4.56,0,0,1-.12.65,1.52,1.52,0,0,1-.17.43.52.52,0,0,1-.26.22,1.58,1.58,0,0,1-.44.08l-.68,0q-1.63,0-2.85,0l-2.12-.06c-.62,0-1.16-.06-1.63-.07h-2c-.29,0-.61,0-1,0l-1,0-1,0c-.39,0-.58-.09-.58-.29s.15-.23.46-.23l.58,0a2.88,2.88,0,0,0,.46-.09A.75.75,0,0,0,290,50a5,5,0,0,0,.25-1.06,22.62,22.62,0,0,0,.13-2.53c0-1.08,0-2.27,0-3.6Z"/>
      <path class="cls-2" d="M308.89,51.33a8.42,8.42,0,0,1-1.93-.57.93.93,0,0,1-.45-.32,1.61,1.61,0,0,1-.1-.66c0-.4,0-.8,0-1.19s0-.77,0-1.11,0-.65.06-.91,0-.44,0-.56a2.38,2.38,0,0,1,.1-.53q.07-.21.24-.21c.14,0,.22,0,.25.15a1.24,1.24,0,0,1,0,.33,3.66,3.66,0,0,0,.07.69,6.35,6.35,0,0,0,.19.78,3.69,3.69,0,0,0,1.62,2.26,5,5,0,0,0,2.49.64,4.41,4.41,0,0,0,1.7-.3,3.88,3.88,0,0,0,1.19-.77,3.29,3.29,0,0,0,.72-1,3,3,0,0,0,.24-1.15,5.33,5.33,0,0,0-.1-1.05,3.65,3.65,0,0,0-.4-1.08,6.49,6.49,0,0,0-.86-1.16,11.42,11.42,0,0,0-1.45-1.31l-1.33-1a19.38,19.38,0,0,1-2-1.78A11.47,11.47,0,0,1,308,37.75a6.48,6.48,0,0,1-.72-1.66A6.86,6.86,0,0,1,307,34.4a5.19,5.19,0,0,1,.47-2.19,5,5,0,0,1,1.35-1.72,6.59,6.59,0,0,1,2.1-1.12,8.63,8.63,0,0,1,2.72-.4,12.63,12.63,0,0,1,2.33.17c.61.11,1.11.22,1.49.31s.4.18.4.35,0,.53-.05,1-.06,1.3-.06,2.43a2.06,2.06,0,0,1-.07.67.25.25,0,0,1-.25.19c-.19,0-.28-.17-.28-.52a3.77,3.77,0,0,0-.15-.76,2.9,2.9,0,0,0-.6-1.13q-.18-.21-.42-.45a2.85,2.85,0,0,0-.62-.46,4.12,4.12,0,0,0-.89-.36,4.73,4.73,0,0,0-1.21-.14,3.58,3.58,0,0,0-2.51.83,2.8,2.8,0,0,0-.91,2.13,3.08,3.08,0,0,0,.64,1.88,6.94,6.94,0,0,0,.93,1c.39.37.89.78,1.48,1.24l.81.6a23.85,23.85,0,0,1,2.2,1.87,10.57,10.57,0,0,1,1.46,1.75,6.37,6.37,0,0,1,.81,1.77,7.58,7.58,0,0,1,.24,1.94,6.51,6.51,0,0,1-.13,1.3,5.25,5.25,0,0,1-.44,1.32A5.89,5.89,0,0,1,317,49.2a5.72,5.72,0,0,1-1.29,1.12,6.79,6.79,0,0,1-2.26.94,11.4,11.4,0,0,1-2.31.24A13,13,0,0,1,308.89,51.33Z"/>
      <path class="cls-2" d="M325.62,51.33a8.42,8.42,0,0,1-1.93-.57.93.93,0,0,1-.45-.32,1.61,1.61,0,0,1-.1-.66c0-.4,0-.8,0-1.19s0-.77,0-1.11,0-.65.06-.91,0-.44,0-.56a2.38,2.38,0,0,1,.1-.53q.08-.21.24-.21c.14,0,.22,0,.25.15a1.24,1.24,0,0,1,0,.33,3.66,3.66,0,0,0,.07.69,6.35,6.35,0,0,0,.19.78,3.69,3.69,0,0,0,1.62,2.26,5,5,0,0,0,2.49.64,4.41,4.41,0,0,0,1.7-.3,3.76,3.76,0,0,0,1.19-.77,3.29,3.29,0,0,0,.72-1,3,3,0,0,0,.24-1.15,5.33,5.33,0,0,0-.1-1.05,3.65,3.65,0,0,0-.4-1.08,6.49,6.49,0,0,0-.86-1.16,11.42,11.42,0,0,0-1.45-1.31l-1.33-1a19.38,19.38,0,0,1-2-1.78,11.47,11.47,0,0,1-1.32-1.68,6.48,6.48,0,0,1-.72-1.66,6.86,6.86,0,0,1-.21-1.69,5.19,5.19,0,0,1,.47-2.19,5,5,0,0,1,1.35-1.72,6.59,6.59,0,0,1,2.1-1.12,8.63,8.63,0,0,1,2.72-.4,12.63,12.63,0,0,1,2.33.17c.61.11,1.11.22,1.49.31s.41.18.41.35,0,.53-.06,1-.06,1.3-.06,2.43a2.06,2.06,0,0,1-.07.67.25.25,0,0,1-.25.19c-.19,0-.28-.17-.28-.52a3.77,3.77,0,0,0-.15-.76,2.9,2.9,0,0,0-.6-1.13q-.18-.21-.42-.45a2.85,2.85,0,0,0-.62-.46,3.92,3.92,0,0,0-.89-.36,4.71,4.71,0,0,0-1.2-.14,3.59,3.59,0,0,0-2.52.83,2.8,2.8,0,0,0-.91,2.13,3.08,3.08,0,0,0,.64,1.88,6.94,6.94,0,0,0,.93,1c.39.37.89.78,1.48,1.24l.81.6a23.85,23.85,0,0,1,2.2,1.87,10.57,10.57,0,0,1,1.46,1.75,6.37,6.37,0,0,1,.81,1.77,7.58,7.58,0,0,1,.24,1.94,6.51,6.51,0,0,1-.13,1.3,5.25,5.25,0,0,1-.44,1.32,5.54,5.54,0,0,1-.84,1.26,5.72,5.72,0,0,1-1.29,1.12,6.79,6.79,0,0,1-2.26.94,11.4,11.4,0,0,1-2.31.24A13,13,0,0,1,325.62,51.33Z"/>
      <path class="cls-2" d="M154.35,74.23c-.09,0-.17.06-.22.19L152.8,78a5.12,5.12,0,0,0-.28.87,3.12,3.12,0,0,0-.09.63.72.72,0,0,0,.21.55,1.1,1.1,0,0,0,.78.21h.37a.85.85,0,0,1,.29,0,.17.17,0,0,1,.08.16c0,.17-.14.25-.42.25s-.84,0-1.32,0-.92,0-1.29,0l-.39,0-.69,0-.88,0h-.95c-.31,0-.47-.08-.47-.25s.1-.2.3-.2h.39l.37,0a1.82,1.82,0,0,0,1.29-.7,6.21,6.21,0,0,0,.8-1.51l6.19-15.48a6.37,6.37,0,0,1,.36-.76.38.38,0,0,1,.33-.22c.18,0,.38.26.61.79.1.23.29.67.56,1.33s.59,1.44,1,2.36.75,1.92,1.18,3l1.27,3.18,1.19,3c.38.93.7,1.71,1,2.33a8.88,8.88,0,0,0,.65,1.34,4.38,4.38,0,0,0,.58.79,2,2,0,0,0,.5.4,2.47,2.47,0,0,0,.43.15,5.21,5.21,0,0,0,.55.08,4.27,4.27,0,0,0,.49,0c.21,0,.32.07.32.2s-.07.17-.22.2a5.53,5.53,0,0,1-.91,0H165c-.83,0-1.75,0-2.73,0l-.54,0c-.14,0-.2-.07-.2-.15s.11-.2.34-.22a.48.48,0,0,0,.23-.2.4.4,0,0,0,0-.37l-2-5.22a.25.25,0,0,0-.25-.17Zm5-1.24c.12,0,.16,0,.12-.14l-2.21-6.09a.88.88,0,0,1,0-.15s0-.07-.08-.07-.06,0-.08.07a.47.47,0,0,0-.06.15l-2.27,6.06c0,.12,0,.17.1.17Z"/>
      <path class="cls-2" d="M173.7,73.51c0,1.6,0,2.82.06,3.67a2.44,2.44,0,0,0,.45,1.63,1.41,1.41,0,0,0,.37.25,3.9,3.9,0,0,0,.56.16,7.21,7.21,0,0,0,.84.09c.33,0,.74,0,1.22,0a12.05,12.05,0,0,0,1.7-.1,1.91,1.91,0,0,0,1.18-.59,2.41,2.41,0,0,0,.41-.69,3.24,3.24,0,0,0,.23-.79,1.31,1.31,0,0,1,.07-.27.22.22,0,0,1,.2-.1c.13,0,.2.14.2.42,0,.07,0,.22,0,.46s0,.5-.08.8-.08.59-.13.87a5.79,5.79,0,0,1-.13.71,1.78,1.78,0,0,1-.12.33.5.5,0,0,1-.24.21,1.43,1.43,0,0,1-.44.1l-.75,0-2.33,0-1.84,0c-.56,0-1.07-.06-1.54-.06l-1.46,0h-.6l-.81,0-.87,0-.83,0c-.33,0-.49-.08-.49-.25s.13-.2.39-.2a3.7,3.7,0,0,0,.49,0,2.18,2.18,0,0,0,.4-.08.61.61,0,0,0,.5-.44,4.39,4.39,0,0,0,.21-.91,17.26,17.26,0,0,0,.11-2.17c0-.92,0-2,0-3.08v-8c0-.38,0-.68,0-.9s0-.43,0-.63a2.28,2.28,0,0,0-.25-1,1.17,1.17,0,0,0-.81-.44,3.47,3.47,0,0,0-.82-.08c-.27,0-.41-.07-.41-.22s.18-.22.54-.22h.92l.95,0,.86,0h1.28l.9,0,1,0h.85c.34,0,.51.07.51.22s-.14.22-.44.22h-.47a2.41,2.41,0,0,0-.49.07A.91.91,0,0,0,174,63a2.42,2.42,0,0,0-.23,1c0,.2,0,.41,0,.63s0,.52,0,.9v8Z"/>
      <path class="cls-2" d="M188.6,73.51c0,1.6,0,2.82.07,3.67a2.44,2.44,0,0,0,.45,1.63,1.27,1.27,0,0,0,.37.25,3.55,3.55,0,0,0,.56.16,7.26,7.26,0,0,0,.83.09c.34,0,.75,0,1.22,0a11.86,11.86,0,0,0,1.7-.1,1.94,1.94,0,0,0,1.19-.59,2.41,2.41,0,0,0,.4-.69,3.3,3.3,0,0,0,.24-.79.88.88,0,0,1,.07-.27.21.21,0,0,1,.2-.1c.13,0,.2.14.2.42,0,.07,0,.22,0,.46s0,.5-.09.8-.08.59-.12.87a5.79,5.79,0,0,1-.13.71,1.75,1.75,0,0,1-.13.33.52.52,0,0,1-.23.21,1.51,1.51,0,0,1-.44.1l-.76,0-2.32,0-1.84,0c-.56,0-1.07-.06-1.54-.06l-1.47,0h-.59l-.81,0-.88,0-.82,0c-.33,0-.49-.08-.49-.25s.13-.2.39-.2a3.78,3.78,0,0,0,.49,0,2.18,2.18,0,0,0,.4-.08.62.62,0,0,0,.5-.44,4.39,4.39,0,0,0,.21-.91,19.42,19.42,0,0,0,.11-2.17c0-.92,0-2,0-3.08v-8c0-.38,0-.68,0-.9s0-.43,0-.63a2.28,2.28,0,0,0-.25-1,1.17,1.17,0,0,0-.81-.44,3.47,3.47,0,0,0-.82-.08c-.28,0-.42-.07-.42-.22s.18-.22.55-.22h.92l.95,0,.86,0h1.28l.9,0,1,0h.85c.35,0,.52.07.52.22s-.15.22-.44.22h-.47a2.31,2.31,0,0,0-.49.07.91.91,0,0,0-.68.43,2.4,2.4,0,0,0-.24,1q0,.3,0,.63c0,.22,0,.52,0,.9v8Z"/>
      <path class="cls-2" d="M200.43,69.17V65.48c0-.38,0-.68,0-.9s0-.43,0-.63c0-.8-.33-1.26-.83-1.38a2.89,2.89,0,0,0-.44-.07,3.4,3.4,0,0,0-.45,0c-.26,0-.4-.08-.4-.24s.2-.2.6-.2h.78l.89,0,.85,0h1.27l.79,0,.85,0h.77c.35,0,.52.06.52.2s-.13.24-.39.24h-.36a2.22,2.22,0,0,0-.38.07.91.91,0,0,0-.68.43,2.42,2.42,0,0,0-.23,1c0,.2,0,.41,0,.63s0,.52,0,.9v8c0,1.2,0,2.27,0,3.2s0,1.67.09,2.2a2,2,0,0,0,.23.81.92.92,0,0,0,.75.39,4.89,4.89,0,0,0,.63.08c.24,0,.45,0,.63,0s.39.07.39.2-.15.25-.47.25c-.82,0-1.58,0-2.29,0l-1.55,0-.59,0-.8,0-.89,0h-.82c-.33,0-.5-.08-.5-.25s.13-.2.4-.2a3.78,3.78,0,0,0,.49,0,1.91,1.91,0,0,0,.39-.08.65.65,0,0,0,.52-.38,2.41,2.41,0,0,0,.2-.85c.06-.52.1-1.25.11-2.18s0-2,0-3.19Z"/>
      <path class="cls-2" d="M212.56,74.23a.25.25,0,0,0-.23.19L211,78a5.12,5.12,0,0,0-.28.87,3.12,3.12,0,0,0-.09.63.72.72,0,0,0,.21.55,1.1,1.1,0,0,0,.78.21H212a.77.77,0,0,1,.29,0,.17.17,0,0,1,.08.16c0,.17-.14.25-.42.25s-.83,0-1.32,0-.92,0-1.29,0l-.38,0-.69,0-.89,0h-1c-.31,0-.47-.08-.47-.25s.1-.2.3-.2h.39l.37,0a1.84,1.84,0,0,0,1.3-.7,7,7,0,0,0,.8-1.51l6.18-15.48a6.37,6.37,0,0,1,.36-.76.38.38,0,0,1,.33-.22c.18,0,.39.26.62.79.09.23.28.67.55,1.33s.59,1.44.95,2.36.76,1.92,1.18,3l1.27,3.18q.63,1.58,1.2,3c.37.93.69,1.71,1,2.33a8.88,8.88,0,0,0,.65,1.34,4.91,4.91,0,0,0,.58.79,2,2,0,0,0,.5.4,2.29,2.29,0,0,0,.44.15,5,5,0,0,0,.54.08,4.27,4.27,0,0,0,.49,0c.21,0,.32.07.32.2s-.07.17-.22.2a5.53,5.53,0,0,1-.91,0h-1.92c-.84,0-1.75,0-2.74,0l-.54,0c-.13,0-.2-.07-.2-.15s.12-.2.35-.22a.51.51,0,0,0,.22-.2.4.4,0,0,0,0-.37l-2-5.22a.25.25,0,0,0-.25-.17Zm5-1.24c.12,0,.16,0,.13-.14l-2.22-6.09a.88.88,0,0,1-.05-.15s0-.07-.08-.07-.06,0-.08.07a.47.47,0,0,0-.06.15L213,72.82c0,.12,0,.17.1.17Z"/>
      <path class="cls-2" d="M230.2,77.31a12,12,0,0,0,.08,1.2,4.42,4.42,0,0,0,.18.82,1.34,1.34,0,0,0,.26.48.89.89,0,0,0,.34.23,2.45,2.45,0,0,0,.65.15c.23,0,.44,0,.63,0s.42.07.42.2-.19.25-.57.25c-.8,0-1.45,0-1.95,0l-1.1,0-.94,0c-.51,0-1.08,0-1.72,0a1.45,1.45,0,0,1-.4,0c-.1,0-.14-.09-.14-.21s.13-.2.39-.2a5.25,5.25,0,0,0,.54,0,3.39,3.39,0,0,0,.57-.1,1,1,0,0,0,.6-.8A13.16,13.16,0,0,0,228.2,77l.22-14.59a2.09,2.09,0,0,1,.07-.61c0-.15.12-.23.25-.23a.55.55,0,0,1,.4.21l.52.55c.06.09.33.38.8.88l1.77,1.86,2.39,2.48c.88.91,1.77,1.81,2.68,2.69l.94,1,1.11,1.14,1.14,1.17,1,1.07c.3.33.56.61.78.83l.44.43h.12l-.25-11.06a4.55,4.55,0,0,0-.21-1.58,1.16,1.16,0,0,0-.63-.64,1.74,1.74,0,0,0-.65-.14h-.65c-.26,0-.4-.07-.4-.22s.07-.16.19-.18a2,2,0,0,1,.46,0c.64,0,1.23,0,1.77,0l1.21,0,.85,0c.43,0,.95,0,1.56,0a1.58,1.58,0,0,1,.41,0,.17.17,0,0,1,.16.18c0,.15-.15.22-.44.22h-.36a2.06,2.06,0,0,0-.38.07,1,1,0,0,0-.71.6,4.78,4.78,0,0,0-.21,1.49l-.27,15.55c0,.51-.1.76-.32.76a.74.74,0,0,1-.42-.17,4.72,4.72,0,0,1-.41-.37c-.4-.36-.88-.82-1.43-1.39l-1.83-1.84-2-2-2-2c-.68-.66-1.34-1.33-2-2l-1.78-1.91-1.37-1.49c-.37-.41-.61-.68-.73-.79h-.07Z"/>
      <path class="cls-2" d="M256.33,80.4a10,10,0,0,1-3.81-2.08,8.1,8.1,0,0,1-1.5-1.69,9.08,9.08,0,0,1-1.42-3.75,12.92,12.92,0,0,1-.13-1.83,10.55,10.55,0,0,1,.12-1.46,10.16,10.16,0,0,1,.43-1.73A9.53,9.53,0,0,1,250.9,66a8,8,0,0,1,1.45-1.73,9.61,9.61,0,0,1,3.18-1.93,13.29,13.29,0,0,1,4.61-.69c.77,0,1.41,0,1.93.07s1.07.1,1.64.18.91.14,1.31.23a6.89,6.89,0,0,0,1.15.19c.25,0,.37.11.37.3s0,.24,0,.43-.06.49-.09.92c0,.2,0,.43,0,.69s0,.52,0,.76,0,.49,0,.72,0,.38,0,.49a1.74,1.74,0,0,1-.08.42.2.2,0,0,1-.22.15c-.16,0-.25-.18-.25-.54a3.62,3.62,0,0,0-.25-1.17,3.25,3.25,0,0,0-.71-1.1,4.65,4.65,0,0,0-2-1.08,9.53,9.53,0,0,0-3-.45,7.93,7.93,0,0,0-2.72.4,5.62,5.62,0,0,0-1.91,1.13,6.08,6.08,0,0,0-1.81,2.92,12.78,12.78,0,0,0-.46,3.46,9.2,9.2,0,0,0,.75,3.84,8.73,8.73,0,0,0,1.9,2.75A7.72,7.72,0,0,0,258.1,79a7.12,7.12,0,0,0,2.6.54,11.28,11.28,0,0,0,2.71-.26,3.31,3.31,0,0,0,1.8-1.12,3.12,3.12,0,0,0,.55-.81,4.25,4.25,0,0,0,.29-.81,1.25,1.25,0,0,1,.11-.4.24.24,0,0,1,.21-.1.18.18,0,0,1,.17.11.58.58,0,0,1,0,.26,3.85,3.85,0,0,1,0,.53c0,.27-.07.58-.12.92s-.11.67-.17,1a8.27,8.27,0,0,1-.2.82,1.42,1.42,0,0,1-.21.46,1.14,1.14,0,0,1-.43.26,6.13,6.13,0,0,1-.89.25,8.59,8.59,0,0,1-1.11.18l-1.22.1L261,81A16.87,16.87,0,0,1,256.33,80.4Z"/>
      <path class="cls-2" d="M271.87,69.17V65.48c0-.38,0-.68,0-.9s0-.43,0-.63a2.28,2.28,0,0,0-.25-1,1.17,1.17,0,0,0-.81-.44,1.4,1.4,0,0,0-.42-.07h-.54c-.28,0-.42-.07-.42-.22s.18-.22.54-.22h2l.88,0h6.83l.63-.08a1.91,1.91,0,0,0,.43-.07l.19-.06a.51.51,0,0,1,.2,0c.1,0,.15.08.15.22a2.79,2.79,0,0,1-.07.43,8.82,8.82,0,0,0-.13,1.18c0,.06,0,.17,0,.32s0,.3,0,.48,0,.33,0,.49a1.6,1.6,0,0,1,0,.33,1.07,1.07,0,0,1-.07.19.21.21,0,0,1-.18.08c-.14,0-.22-.11-.22-.34,0-.08,0-.22,0-.4a1.54,1.54,0,0,0-.13-.49,1.17,1.17,0,0,0-.43-.54,3,3,0,0,0-1.22-.35l-.65,0-1.07,0-1.09,0h-.69c-.11,0-.17.08-.17.24v6.24c0,.18.06.27.17.27h1.95l1.21,0c.38,0,.64,0,.79,0s.53-.07.72-.11a.85.85,0,0,0,.46-.26c.18-.22.31-.32.39-.32s.18.06.18.19a4.59,4.59,0,0,1-.07.5c0,.24-.08.68-.13,1.3a3.91,3.91,0,0,1,0,.45c0,.16,0,.33,0,.49s0,.31,0,.44,0,.22,0,.27,0,.21,0,.31a.18.18,0,0,1-.2.16.19.19,0,0,1-.22-.22c0-.13,0-.27,0-.42a4.32,4.32,0,0,0-.06-.47,1.26,1.26,0,0,0-.4-.62,1.7,1.7,0,0,0-1-.34c-.12,0-.34,0-.67,0l-1.05,0h-1.78q-.15,0-.15.24v5.77a4.6,4.6,0,0,0,.14,1,1.08,1.08,0,0,0,.42.63,2,2,0,0,0,.88.3,10.31,10.31,0,0,0,1.52.09c.33,0,.71,0,1.16,0a3.25,3.25,0,0,0,1.15-.25,1.58,1.58,0,0,0,.74-.65,3.21,3.21,0,0,0,.37-1.18c0-.24.14-.37.27-.37a.16.16,0,0,1,.18.13,2.45,2.45,0,0,1,0,.32,5.37,5.37,0,0,1,0,.6c0,.25,0,.52-.08.79s-.07.53-.1.79a4,4,0,0,1-.1.55,1.54,1.54,0,0,1-.15.37.52.52,0,0,1-.22.19,1.29,1.29,0,0,1-.38.07h-.58l-2.44,0-1.82,0c-.53,0-1-.06-1.39-.06l-1.18,0h-.59l-.81,0-.87,0-.83,0c-.33,0-.49-.08-.49-.25s.13-.2.39-.2a3.7,3.7,0,0,0,.49,0,2.18,2.18,0,0,0,.4-.08.61.61,0,0,0,.5-.44,4.39,4.39,0,0,0,.21-.91,17.26,17.26,0,0,0,.11-2.17c0-.92,0-2,0-3.08Z"/>
    </g>
    <line class="cls-3" x1="109.48" y1="72.32" x2="145.79" y2="72.32"/>
    <line class="cls-3" x1="287.1" y1="72.32" x2="323.42" y2="72.32"/>
    <g>
      <path class="cls-4" d="M19,39.13V34.26c0-.5,0-.89,0-1.18s0-.57-.05-.83A2.88,2.88,0,0,0,18.61,31a1.53,1.53,0,0,0-1.07-.58,2.24,2.24,0,0,0-.56-.09h-.71c-.37,0-.55-.1-.55-.29s.24-.3.71-.3l1.33,0,1.32,0,1.15,0h.88c.67,0,1.43,0,2.29,0s1.66-.05,2.42-.05a12.58,12.58,0,0,1,2.58.23,11.24,11.24,0,0,1,1.77.52,5.16,5.16,0,0,1,1.1.6c.26.21.46.38.59.5A6,6,0,0,1,33,33.11a5,5,0,0,1,.53,2.32,8.21,8.21,0,0,1-.6,3.17,7.38,7.38,0,0,1-1.67,2.48,7.84,7.84,0,0,1-2.53,1.62,8.54,8.54,0,0,1-3.19.59h-.35a1.55,1.55,0,0,1-.33,0l-.26-.09a.19.19,0,0,1-.13-.21.28.28,0,0,1,.2-.27,1.94,1.94,0,0,1,.71-.08,3.34,3.34,0,0,0,1.45-.38,5,5,0,0,0,1.41-1.07,5.74,5.74,0,0,0,1.07-1.69,5.63,5.63,0,0,0,.42-2.22,9.54,9.54,0,0,0-.05-1A7.85,7.85,0,0,0,29.41,35a5.68,5.68,0,0,0-.57-1.34,5.32,5.32,0,0,0-1.07-1.3,4.16,4.16,0,0,0-1.79-1,6.48,6.48,0,0,0-1.46-.23c-.24,0-.47,0-.7,0a3.3,3.3,0,0,0-.57.1c-.17.07-.26.27-.26.62v13c0,1.49,0,2.85,0,4.07a28.45,28.45,0,0,0,.14,2.88,3.58,3.58,0,0,0,.3,1.17,1.12,1.12,0,0,0,1,.58,5.9,5.9,0,0,0,.83.1l.83,0c.34,0,.52.09.52.26s-.21.33-.62.33c-1.08,0-2.08,0-3-.05s-1.6,0-2,0c-.2,0-.46,0-.78,0l-1.06,0-1.17,0-1.09,0c-.43,0-.65-.11-.65-.33s.18-.26.52-.26a6.32,6.32,0,0,0,.65,0,2.4,2.4,0,0,0,.52-.1.85.85,0,0,0,.67-.58,6.27,6.27,0,0,0,.28-1.2A28.33,28.33,0,0,0,19,48.91c0-1.22,0-2.57,0-4.06Z"/>
      <path class="cls-4" d="M40.27,39.13V34.26c0-.5,0-.89,0-1.18s0-.57,0-.83A2.88,2.88,0,0,0,39.88,31a1.51,1.51,0,0,0-1.07-.58,2.24,2.24,0,0,0-.55-.09h-.72c-.37,0-.55-.1-.55-.29s.24-.3.71-.3l1.34,0,1.31,0,1.15,0h.88c.67,0,1.43,0,2.29,0s1.66-.05,2.42-.05a12.51,12.51,0,0,1,2.58.23,11.24,11.24,0,0,1,1.77.52,4.7,4.7,0,0,1,1.1.6c.26.21.46.38.59.5a6,6,0,0,1,1.09,1.55,5,5,0,0,1,.53,2.32,8.21,8.21,0,0,1-.6,3.17,7.38,7.38,0,0,1-1.67,2.48A7.73,7.73,0,0,1,50,42.7a8.54,8.54,0,0,1-3.19.59h-.35a1.55,1.55,0,0,1-.33,0l-.26-.09a.2.2,0,0,1-.13-.21.28.28,0,0,1,.2-.27,2,2,0,0,1,.71-.08,3.3,3.3,0,0,0,1.45-.38,4.71,4.71,0,0,0,1.41-1.07,5.74,5.74,0,0,0,1.07-1.69A5.63,5.63,0,0,0,51,37.25a9.54,9.54,0,0,0-.05-1A6.86,6.86,0,0,0,50.68,35a5.68,5.68,0,0,0-.57-1.34A5.32,5.32,0,0,0,49,32.38a4.16,4.16,0,0,0-1.79-1,6.4,6.4,0,0,0-1.46-.23c-.24,0-.47,0-.7,0a3.3,3.3,0,0,0-.57.1c-.17.07-.26.27-.26.62v13c0,1.49,0,2.85,0,4.07a25.34,25.34,0,0,0,.15,2.88A3.59,3.59,0,0,0,44.72,53a1.12,1.12,0,0,0,1,.58,6.09,6.09,0,0,0,.83.1l.83,0c.34,0,.52.09.52.26s-.21.33-.62.33c-1.08,0-2.08,0-3-.05s-1.6,0-2,0c-.2,0-.46,0-.78,0l-1.06,0-1.17,0-1.08,0c-.44,0-.65-.11-.65-.33s.17-.26.52-.26.45,0,.65,0a2.66,2.66,0,0,0,.52-.1.85.85,0,0,0,.66-.58,6.27,6.27,0,0,0,.28-1.2,28.33,28.33,0,0,0,.14-2.86c0-1.22,0-2.57,0-4.06Z"/>
      <path class="cls-4" d="M61.22,45.79c-.13,0-.23.09-.3.26l-1.75,4.64a6.17,6.17,0,0,0-.37,1.16,4,4,0,0,0-.12.82,1,1,0,0,0,.28.73,1.4,1.4,0,0,0,1,.28h.49a1.1,1.1,0,0,1,.39,0,.22.22,0,0,1,.1.21c0,.22-.19.33-.56.33s-1.09,0-1.73-.05-1.21,0-1.71,0l-.5,0-.91,0-1.17,0-1.25,0c-.41,0-.62-.11-.62-.33s.13-.26.39-.26a4.88,4.88,0,0,0,.52,0l.49,0a2.42,2.42,0,0,0,1.7-.93,8.77,8.77,0,0,0,1.06-2L64.82,30.3a8.74,8.74,0,0,1,.47-1,.53.53,0,0,1,.44-.29c.24,0,.51.35.81,1,.13.3.38.89.73,1.75s.78,1.91,1.25,3.12l1.56,3.93c.56,1.41,1.12,2.8,1.67,4.19s1.08,2.69,1.58,3.91.92,2.25,1.27,3.07a12.27,12.27,0,0,0,.86,1.77,5.85,5.85,0,0,0,.76,1,2.39,2.39,0,0,0,.67.52,2.61,2.61,0,0,0,.56.21,5.93,5.93,0,0,0,.72.1l.65,0c.28,0,.42.09.42.26s-.1.22-.29.26a7.16,7.16,0,0,1-1.2.07H75.21c-1.1,0-2.3,0-3.6-.07l-.72-.06c-.17,0-.26-.09-.26-.2s.16-.27.46-.29a.64.64,0,0,0,.29-.26.47.47,0,0,0,0-.49L68.78,46a.33.33,0,0,0-.32-.23Zm6.62-1.62c.15,0,.21-.07.16-.2l-2.92-8-.06-.2c0-.06-.06-.09-.1-.09s-.08,0-.12.09a1.67,1.67,0,0,0-.08.2l-3,8c-.05.15,0,.23.13.23Z"/>
    </g>
  </g>
</svg>
